<svg width="16" height="16" viewBox="0 0 16 16" fill="none" xmlns="http://www.w3.org/2000/svg">
<path fill-rule="evenodd" clip-rule="evenodd" d="M0 3.4C0 2.76348 0.252856 2.15303 0.702944 1.70294C1.15303 1.25286 1.76348 1 2.4 1H5.544C5.93909 1.00003 6.32807 1.0976 6.6764 1.28404C7.02474 1.47049 7.32165 1.74005 7.5408 2.0688L8.1904 3.044C8.26348 3.15353 8.36246 3.24333 8.47857 3.30544C8.59468 3.36754 8.72433 3.40002 8.856 3.4H13.6C14.2365 3.4 14.847 3.65286 15.2971 4.10294C15.7471 4.55303 16 5.16348 16 5.8V13C16 13.6365 15.7471 14.247 15.2971 14.6971C14.847 15.1471 14.2365 15.4 13.6 15.4H2.4C1.76348 15.4 1.15303 15.1471 0.702944 14.6971C0.252856 14.247 0 13.6365 0 13V3.4ZM8.8 7.4C8.8 7.18783 8.71571 6.98434 8.56569 6.83431C8.41566 6.68429 8.21217 6.6 8 6.6C7.78783 6.6 7.58434 6.68429 7.43431 6.83431C7.28429 6.98434 7.2 7.18783 7.2 7.4V10.2688L6.1656 9.2344C6.01472 9.08867 5.81264 9.00804 5.60288 9.00986C5.39312 9.01168 5.19247 9.09582 5.04415 9.24414C4.89582 9.39247 4.81168 9.59312 4.80986 9.80288C4.80804 10.0126 4.88867 10.2147 5.0344 10.3656L7.4344 12.7656C7.58442 12.9156 7.78787 12.9998 8 12.9998C8.21213 12.9998 8.41558 12.9156 8.5656 12.7656L10.9656 10.3656C11.1113 10.2147 11.192 10.0126 11.1901 9.80288C11.1883 9.59312 11.1042 9.39247 10.9559 9.24414C10.8075 9.09582 10.6069 9.01168 10.3971 9.00986C10.1874 9.00804 9.98528 9.08867 9.8344 9.2344L8.8 10.2688V7.4Z" fill="#787887"/>
</svg>
