<svg width="16" height="16" viewBox="0 0 16 16" fill="none" xmlns="http://www.w3.org/2000/svg">
<path d="M0 8V14.2222C0 15.2 0.8 16 1.77778 16H3.55556C4.53333 16 5.33333 15.2 5.33333 14.2222V10.6667C5.33333 9.68889 4.53333 8.88889 3.55556 8.88889H1.77778V8C1.77778 4.56 4.56 1.77778 8 1.77778C11.44 1.77778 14.2222 4.56 14.2222 8V8.88889H12.4444C11.4667 8.88889 10.6667 9.68889 10.6667 10.6667V14.2222C10.6667 15.2 11.4667 16 12.4444 16H14.2222C15.2 16 16 15.2 16 14.2222V8C16 5.87827 15.1571 3.84344 13.6569 2.34315C12.1566 0.842855 10.1217 0 8 0C5.87827 0 3.84344 0.842855 2.34315 2.34315C0.842855 3.84344 3.16163e-08 5.87827 0 8Z" fill="#787887"/>
</svg>
